<mxfile host="app.diagrams.net" agent="Mozilla/5.0 (Windows NT 10.0; Win64; x64) AppleWebKit/537.36 (KHTML, like Gecko) Chrome/130.0.0.0 Safari/537.36" version="24.8.3">
  <diagram name="Page-1" id="5TYIUFTTL1Grn9ONCjUk">
    <mxGraphModel dx="2200" dy="1170" grid="1" gridSize="10" guides="1" tooltips="1" connect="1" arrows="1" fold="1" page="1" pageScale="1" pageWidth="3300" pageHeight="4681" math="0" shadow="0">
      <root>
        <mxCell id="0" />
        <mxCell id="1" parent="0" />
        <mxCell id="hyIcgwWvbgoIjUJK2Ret-32" value="" style="rounded=0;whiteSpace=wrap;html=1;" vertex="1" parent="1">
          <mxGeometry x="80" y="20" width="1340" height="930" as="geometry" />
        </mxCell>
        <mxCell id="hyIcgwWvbgoIjUJK2Ret-33" value="" style="shape=umlLifeline;perimeter=lifelinePerimeter;whiteSpace=wrap;html=1;container=1;dropTarget=0;collapsible=0;recursiveResize=0;outlineConnect=0;portConstraint=eastwest;newEdgeStyle={&quot;curved&quot;:0,&quot;rounded&quot;:0};participant=umlActor;" vertex="1" parent="1">
          <mxGeometry x="240" y="150" width="30" height="740" as="geometry" />
        </mxCell>
        <mxCell id="hyIcgwWvbgoIjUJK2Ret-34" value="&lt;b&gt;&lt;font style=&quot;font-size: 15px;&quot;&gt;Interface&lt;/font&gt;&lt;/b&gt;" style="shape=umlLifeline;perimeter=lifelinePerimeter;whiteSpace=wrap;html=1;container=1;dropTarget=0;collapsible=0;recursiveResize=0;outlineConnect=0;portConstraint=eastwest;newEdgeStyle={&quot;curved&quot;:0,&quot;rounded&quot;:0};" vertex="1" parent="1">
          <mxGeometry x="400" y="155" width="100" height="730" as="geometry" />
        </mxCell>
        <mxCell id="hyIcgwWvbgoIjUJK2Ret-35" value="" style="html=1;points=[[0,0,0,0,5],[0,1,0,0,-5],[1,0,0,0,5],[1,1,0,0,-5]];perimeter=orthogonalPerimeter;outlineConnect=0;targetShapes=umlLifeline;portConstraint=eastwest;newEdgeStyle={&quot;curved&quot;:0,&quot;rounded&quot;:0};" vertex="1" parent="hyIcgwWvbgoIjUJK2Ret-34">
          <mxGeometry x="45" y="90" width="10" height="560" as="geometry" />
        </mxCell>
        <mxCell id="hyIcgwWvbgoIjUJK2Ret-36" value="&lt;b&gt;&lt;font style=&quot;font-size: 15px;&quot;&gt;Views&lt;/font&gt;&lt;/b&gt;" style="shape=umlLifeline;perimeter=lifelinePerimeter;whiteSpace=wrap;html=1;container=1;dropTarget=0;collapsible=0;recursiveResize=0;outlineConnect=0;portConstraint=eastwest;newEdgeStyle={&quot;curved&quot;:0,&quot;rounded&quot;:0};" vertex="1" parent="1">
          <mxGeometry x="600" y="155" width="100" height="730" as="geometry" />
        </mxCell>
        <mxCell id="hyIcgwWvbgoIjUJK2Ret-37" value="" style="html=1;points=[[0,0,0,0,5],[0,1,0,0,-5],[1,0,0,0,5],[1,1,0,0,-5]];perimeter=orthogonalPerimeter;outlineConnect=0;targetShapes=umlLifeline;portConstraint=eastwest;newEdgeStyle={&quot;curved&quot;:0,&quot;rounded&quot;:0};" vertex="1" parent="hyIcgwWvbgoIjUJK2Ret-36">
          <mxGeometry x="45" y="120" width="10" height="490" as="geometry" />
        </mxCell>
        <mxCell id="hyIcgwWvbgoIjUJK2Ret-38" value="" style="html=1;points=[[0,0,0,0,5],[0,1,0,0,-5],[1,0,0,0,5],[1,1,0,0,-5]];perimeter=orthogonalPerimeter;outlineConnect=0;targetShapes=umlLifeline;portConstraint=eastwest;newEdgeStyle={&quot;curved&quot;:0,&quot;rounded&quot;:0};" vertex="1" parent="hyIcgwWvbgoIjUJK2Ret-36">
          <mxGeometry x="55" y="350" width="10" height="40" as="geometry" />
        </mxCell>
        <mxCell id="hyIcgwWvbgoIjUJK2Ret-39" value="&lt;font style=&quot;font-size: 15px;&quot;&gt;CheckIfParticipantExists(personnel, equipe)&lt;/font&gt;" style="html=1;align=left;spacingLeft=2;endArrow=block;rounded=0;edgeStyle=orthogonalEdgeStyle;curved=0;rounded=0;" edge="1" parent="hyIcgwWvbgoIjUJK2Ret-36" source="hyIcgwWvbgoIjUJK2Ret-36" target="hyIcgwWvbgoIjUJK2Ret-38">
          <mxGeometry relative="1" as="geometry">
            <mxPoint x="150" y="370" as="sourcePoint" />
            <Array as="points">
              <mxPoint x="130" y="330" />
              <mxPoint x="130" y="380" />
            </Array>
          </mxGeometry>
        </mxCell>
        <mxCell id="hyIcgwWvbgoIjUJK2Ret-40" value="&lt;font style=&quot;font-size: 15px;&quot;&gt;&lt;b&gt;Participant&lt;/b&gt;&lt;/font&gt;" style="shape=umlLifeline;perimeter=lifelinePerimeter;whiteSpace=wrap;html=1;container=1;dropTarget=0;collapsible=0;recursiveResize=0;outlineConnect=0;portConstraint=eastwest;newEdgeStyle={&quot;curved&quot;:0,&quot;rounded&quot;:0};" vertex="1" parent="1">
          <mxGeometry x="1173" y="600" width="100" height="290" as="geometry" />
        </mxCell>
        <mxCell id="hyIcgwWvbgoIjUJK2Ret-41" value="&lt;b&gt;&lt;font style=&quot;font-size: 15px;&quot;&gt;Equipe&lt;/font&gt;&lt;/b&gt;" style="shape=umlLifeline;perimeter=lifelinePerimeter;whiteSpace=wrap;html=1;container=1;dropTarget=0;collapsible=0;recursiveResize=0;outlineConnect=0;portConstraint=eastwest;newEdgeStyle={&quot;curved&quot;:0,&quot;rounded&quot;:0};" vertex="1" parent="1">
          <mxGeometry x="840" y="155" width="100" height="730" as="geometry" />
        </mxCell>
        <mxCell id="hyIcgwWvbgoIjUJK2Ret-42" value="" style="html=1;points=[[0,0,0,0,5],[0,1,0,0,-5],[1,0,0,0,5],[1,1,0,0,-5]];perimeter=orthogonalPerimeter;outlineConnect=0;targetShapes=umlLifeline;portConstraint=eastwest;newEdgeStyle={&quot;curved&quot;:0,&quot;rounded&quot;:0};" vertex="1" parent="hyIcgwWvbgoIjUJK2Ret-41">
          <mxGeometry x="45" y="134" width="10" height="60" as="geometry" />
        </mxCell>
        <mxCell id="hyIcgwWvbgoIjUJK2Ret-43" value="&lt;font style=&quot;font-size: 15px;&quot;&gt;AjouterParticipant()&lt;/font&gt;" style="html=1;verticalAlign=bottom;endArrow=block;curved=0;rounded=0;entryX=0;entryY=0;entryDx=0;entryDy=5;" edge="1" parent="1" source="hyIcgwWvbgoIjUJK2Ret-33" target="hyIcgwWvbgoIjUJK2Ret-35">
          <mxGeometry x="0.0005" relative="1" as="geometry">
            <mxPoint x="367" y="265" as="sourcePoint" />
            <mxPoint as="offset" />
          </mxGeometry>
        </mxCell>
        <mxCell id="hyIcgwWvbgoIjUJK2Ret-44" value="&lt;font style=&quot;font-size: 15px;&quot;&gt;erreur&lt;/font&gt;" style="html=1;verticalAlign=bottom;endArrow=open;dashed=1;endSize=8;curved=0;rounded=0;exitX=0;exitY=1;exitDx=0;exitDy=-5;" edge="1" parent="1" source="hyIcgwWvbgoIjUJK2Ret-35" target="hyIcgwWvbgoIjUJK2Ret-33">
          <mxGeometry relative="1" as="geometry">
            <mxPoint x="367" y="335" as="targetPoint" />
          </mxGeometry>
        </mxCell>
        <mxCell id="hyIcgwWvbgoIjUJK2Ret-45" value="&lt;font style=&quot;font-size: 15px;&quot;&gt;AddParticipant(data)&lt;/font&gt;" style="html=1;verticalAlign=bottom;endArrow=block;curved=0;rounded=0;entryX=0;entryY=0;entryDx=0;entryDy=5;" edge="1" parent="1" source="hyIcgwWvbgoIjUJK2Ret-35" target="hyIcgwWvbgoIjUJK2Ret-37">
          <mxGeometry relative="1" as="geometry">
            <mxPoint x="650" y="285" as="sourcePoint" />
          </mxGeometry>
        </mxCell>
        <mxCell id="hyIcgwWvbgoIjUJK2Ret-46" value="&lt;font style=&quot;font-size: 15px;&quot;&gt;status 409&lt;/font&gt;" style="html=1;verticalAlign=bottom;endArrow=open;dashed=1;endSize=8;curved=0;rounded=0;exitX=0;exitY=1;exitDx=0;exitDy=-5;" edge="1" parent="1" source="hyIcgwWvbgoIjUJK2Ret-37" target="hyIcgwWvbgoIjUJK2Ret-34">
          <mxGeometry relative="1" as="geometry">
            <mxPoint x="650" y="355" as="targetPoint" />
          </mxGeometry>
        </mxCell>
        <mxCell id="hyIcgwWvbgoIjUJK2Ret-47" value="&lt;font style=&quot;font-size: 15px;&quot;&gt;&lt;b&gt;Personnel&lt;/b&gt;&lt;/font&gt;" style="shape=umlLifeline;perimeter=lifelinePerimeter;whiteSpace=wrap;html=1;container=1;dropTarget=0;collapsible=0;recursiveResize=0;outlineConnect=0;portConstraint=eastwest;newEdgeStyle={&quot;curved&quot;:0,&quot;rounded&quot;:0};" vertex="1" parent="1">
          <mxGeometry x="990" y="155" width="100" height="730" as="geometry" />
        </mxCell>
        <mxCell id="hyIcgwWvbgoIjUJK2Ret-48" value="" style="html=1;points=[[0,0,0,0,5],[0,1,0,0,-5],[1,0,0,0,5],[1,1,0,0,-5]];perimeter=orthogonalPerimeter;outlineConnect=0;targetShapes=umlLifeline;portConstraint=eastwest;newEdgeStyle={&quot;curved&quot;:0,&quot;rounded&quot;:0};" vertex="1" parent="hyIcgwWvbgoIjUJK2Ret-47">
          <mxGeometry x="45" y="220" width="10" height="80" as="geometry" />
        </mxCell>
        <mxCell id="hyIcgwWvbgoIjUJK2Ret-49" value="&lt;font style=&quot;font-size: 15px;&quot;&gt;GetEquipebyId(date.id_equipe)&lt;/font&gt;" style="html=1;verticalAlign=bottom;endArrow=block;curved=0;rounded=0;entryX=0;entryY=0;entryDx=0;entryDy=5;" edge="1" parent="1" source="hyIcgwWvbgoIjUJK2Ret-36" target="hyIcgwWvbgoIjUJK2Ret-42">
          <mxGeometry relative="1" as="geometry">
            <mxPoint x="900" y="295" as="sourcePoint" />
          </mxGeometry>
        </mxCell>
        <mxCell id="hyIcgwWvbgoIjUJK2Ret-50" value="&lt;font style=&quot;font-size: 15px;&quot;&gt;equipe&lt;/font&gt;" style="html=1;verticalAlign=bottom;endArrow=open;dashed=1;endSize=8;curved=0;rounded=0;exitX=0;exitY=1;exitDx=0;exitDy=-5;" edge="1" parent="1" source="hyIcgwWvbgoIjUJK2Ret-42" target="hyIcgwWvbgoIjUJK2Ret-36">
          <mxGeometry relative="1" as="geometry">
            <mxPoint x="900" y="365" as="targetPoint" />
          </mxGeometry>
        </mxCell>
        <mxCell id="hyIcgwWvbgoIjUJK2Ret-51" value="&lt;font style=&quot;font-size: 15px;&quot;&gt;GetPersonnelById(data.personnel.id_personnel)&lt;/font&gt;" style="html=1;verticalAlign=bottom;endArrow=block;curved=0;rounded=0;entryX=0;entryY=0;entryDx=0;entryDy=5;" edge="1" parent="1" source="hyIcgwWvbgoIjUJK2Ret-36" target="hyIcgwWvbgoIjUJK2Ret-48">
          <mxGeometry relative="1" as="geometry">
            <mxPoint x="1120" y="385" as="sourcePoint" />
          </mxGeometry>
        </mxCell>
        <mxCell id="hyIcgwWvbgoIjUJK2Ret-52" value="&lt;font style=&quot;font-size: 15px;&quot;&gt;personnel&lt;/font&gt;" style="html=1;verticalAlign=bottom;endArrow=open;dashed=1;endSize=8;curved=0;rounded=0;exitX=0;exitY=1;exitDx=0;exitDy=-5;" edge="1" parent="1" source="hyIcgwWvbgoIjUJK2Ret-48" target="hyIcgwWvbgoIjUJK2Ret-36">
          <mxGeometry relative="1" as="geometry">
            <mxPoint x="1120" y="455" as="targetPoint" />
          </mxGeometry>
        </mxCell>
        <mxCell id="hyIcgwWvbgoIjUJK2Ret-53" value="ALT" style="shape=umlFrame;whiteSpace=wrap;html=1;pointerEvents=0;" vertex="1" parent="1">
          <mxGeometry x="160" y="570" width="1150" height="270" as="geometry" />
        </mxCell>
        <mxCell id="hyIcgwWvbgoIjUJK2Ret-54" value="&lt;font style=&quot;font-size: 15px;&quot;&gt;Create()&lt;/font&gt;" style="html=1;verticalAlign=bottom;endArrow=block;curved=0;rounded=0;entryX=0.017;entryY=0.03;entryDx=0;entryDy=0;entryPerimeter=0;" edge="1" parent="1">
          <mxGeometry width="80" relative="1" as="geometry">
            <mxPoint x="655" y="621.6999999999999" as="sourcePoint" />
            <mxPoint x="1172.7" y="621.6999999999999" as="targetPoint" />
          </mxGeometry>
        </mxCell>
        <mxCell id="hyIcgwWvbgoIjUJK2Ret-55" value="" style="endArrow=none;dashed=1;html=1;rounded=0;exitX=0;exitY=0.565;exitDx=0;exitDy=0;exitPerimeter=0;entryX=1.001;entryY=0.552;entryDx=0;entryDy=0;entryPerimeter=0;" edge="1" parent="1" source="hyIcgwWvbgoIjUJK2Ret-53" target="hyIcgwWvbgoIjUJK2Ret-53">
          <mxGeometry width="50" height="50" relative="1" as="geometry">
            <mxPoint x="700" y="690" as="sourcePoint" />
            <mxPoint x="750" y="640" as="targetPoint" />
          </mxGeometry>
        </mxCell>
        <mxCell id="hyIcgwWvbgoIjUJK2Ret-57" value="&lt;font style=&quot;font-size: 15px;&quot;&gt;ok&lt;/font&gt;" style="html=1;verticalAlign=bottom;endArrow=open;dashed=1;endSize=8;curved=0;rounded=0;" edge="1" parent="1" source="hyIcgwWvbgoIjUJK2Ret-35">
          <mxGeometry relative="1" as="geometry">
            <mxPoint x="254.16666666666674" y="690" as="targetPoint" />
            <mxPoint x="460" y="690" as="sourcePoint" />
          </mxGeometry>
        </mxCell>
        <mxCell id="hyIcgwWvbgoIjUJK2Ret-58" value="&lt;font style=&quot;font-size: 15px;&quot;&gt;Ajout d&#39;un participant à une équipe&lt;/font&gt;" style="shape=umlFrame;whiteSpace=wrap;html=1;pointerEvents=0;recursiveResize=0;container=1;collapsible=0;width=250;height=30;" vertex="1" parent="1">
          <mxGeometry x="140" y="90" width="1210" height="800" as="geometry" />
        </mxCell>
        <mxCell id="hyIcgwWvbgoIjUJK2Ret-61" value="&lt;b&gt;&lt;font style=&quot;font-size: 15px;&quot;&gt;User&lt;/font&gt;&lt;/b&gt;" style="text;html=1;align=center;verticalAlign=middle;whiteSpace=wrap;rounded=0;" vertex="1" parent="hyIcgwWvbgoIjUJK2Ret-58">
          <mxGeometry x="85" y="100" width="60" height="30" as="geometry" />
        </mxCell>
        <mxCell id="hyIcgwWvbgoIjUJK2Ret-59" value="&lt;font style=&quot;font-size: 15px;&quot;&gt;[If participant not exist]&lt;/font&gt;" style="text;html=1;align=center;verticalAlign=middle;whiteSpace=wrap;rounded=0;" vertex="1" parent="1">
          <mxGeometry x="170" y="600" width="160" height="30" as="geometry" />
        </mxCell>
        <mxCell id="hyIcgwWvbgoIjUJK2Ret-60" value="&lt;font style=&quot;font-size: 15px;&quot;&gt;[If participant exist]&lt;/font&gt;" style="text;html=1;align=center;verticalAlign=middle;whiteSpace=wrap;rounded=0;" vertex="1" parent="1">
          <mxGeometry x="158" y="740" width="160" height="30" as="geometry" />
        </mxCell>
        <mxCell id="hyIcgwWvbgoIjUJK2Ret-56" value="&lt;font style=&quot;font-size: 15px;&quot;&gt;status 200&lt;/font&gt;" style="html=1;verticalAlign=bottom;endArrow=open;dashed=1;endSize=8;curved=0;rounded=0;entryX=0.5;entryY=0.759;entryDx=0;entryDy=0;entryPerimeter=0;" edge="1" parent="1">
          <mxGeometry relative="1" as="geometry">
            <mxPoint x="450" y="652.0399999999998" as="targetPoint" />
            <mxPoint x="645" y="652.0399999999998" as="sourcePoint" />
          </mxGeometry>
        </mxCell>
      </root>
    </mxGraphModel>
  </diagram>
</mxfile>
